<?xml version="1.0" encoding="UTF-8"?>
<svg width="64" height="64" viewBox="0 0 64 64" fill="none" xmlns="http://www.w3.org/2000/svg">
  <!-- Фон -->
  <circle cx="32" cy="32" r="32" fill="#005BBB" />
  <circle cx="32" cy="32" r="28" fill="#ffffff" />
  
  <!-- Циферблат годинника -->
  <circle cx="32" cy="32" r="24" fill="#FFF" stroke="#005BBB" stroke-width="2" />
  
  <!-- Жовта смуга (український прапор) -->
  <path d="M32 8 A24 24 0 0 1 56 32 L32 32 Z" fill="#FFD500" />
  
  <!-- Позначки годин (спрощені) -->
  <line x1="32" y1="12" x2="32" y2="14" stroke="#005BBB" stroke-width="2" stroke-linecap="round" />
  <line x1="42" y1="16" x2="40" y2="18" stroke="#005BBB" stroke-width="2" stroke-linecap="round" />
  <line x1="48" y1="26" x2="46" y2="28" stroke="#005BBB" stroke-width="2" stroke-linecap="round" />
  <line x1="52" y1="32" x2="50" y2="32" stroke="#005BBB" stroke-width="2" stroke-linecap="round" />
  <line x1="48" y1="38" x2="46" y2="36" stroke="#005BBB" stroke-width="2" stroke-linecap="round" />
  <line x1="42" y1="48" x2="40" y2="46" stroke="#005BBB" stroke-width="2" stroke-linecap="round" />
  <line x1="32" y1="52" x2="32" y2="50" stroke="#005BBB" stroke-width="2" stroke-linecap="round" />
  <line x1="22" y1="48" x2="24" y2="46" stroke="#005BBB" stroke-width="2" stroke-linecap="round" />
  <line x1="16" y1="38" x2="18" y2="36" stroke="#005BBB" stroke-width="2" stroke-linecap="round" />
  <line x1="12" y1="32" x2="14" y2="32" stroke="#005BBB" stroke-width="2" stroke-linecap="round" />
  <line x1="16" y1="26" x2="18" y2="28" stroke="#005BBB" stroke-width="2" stroke-linecap="round" />
  <line x1="22" y1="16" x2="24" y2="18" stroke="#005BBB" stroke-width="2" stroke-linecap="round" />
  
  <!-- Стрілки годинника -->
  <line x1="32" y1="32" x2="32" y2="18" stroke="#005BBB" stroke-width="3" stroke-linecap="round" />
  <line x1="32" y1="32" x2="42" y2="32" stroke="#005BBB" stroke-width="2.5" stroke-linecap="round" />
  
  <!-- Центр годинника -->
  <circle cx="32" cy="32" r="3" fill="#005BBB" />
  
  <!-- Академічна шапка (спрощена) -->
  <path d="M32 14 L24 18 L32 22 L40 18 Z" fill="#FFD500" stroke="#005BBB" stroke-width="0.5" />
</svg> 