<?xml version="1.0" encoding="UTF-8"?>
<svg width="64" height="64" viewBox="0 0 64 64" fill="none" xmlns="http://www.w3.org/2000/svg">
  <!-- Фон -->
  <circle cx="32" cy="32" r="32" fill="#005BBB" />
  <circle cx="32" cy="32" r="28" fill="#FFD500" />
  
  <!-- Відкрита книга -->
  <!-- Ліва сторінка -->
  <path d="M16 22 C16 22 22 20 32 20 L32 44 C22 44 16 42 16 42 L16 22 Z" fill="#005BBB" />
  <path d="M18 23 C18 23 24 21 31 21 L31 42 C24 42 18 41 18 41 L18 23 Z" fill="#FFD500" />
  
  <!-- Права сторінка -->
  <path d="M48 22 C48 22 42 20 32 20 L32 44 C42 44 48 42 48 42 L48 22 Z" fill="#005BBB" />
  <path d="M46 23 C46 23 40 21 33 21 L33 42 C40 42 46 41 46 41 L46 23 Z" fill="#FFD500" />
  
  <!-- Корінець книги -->
  <path d="M32 20 L32 44" stroke="#005BBB" stroke-width="1" />
  
  <!-- Лінії на сторінках (текст) -->
  <line x1="21" y1="26" x2="29" y2="26" stroke="#005BBB" stroke-width="0.5" />
  <line x1="21" y1="30" x2="29" y2="30" stroke="#005BBB" stroke-width="0.5" />
  <line x1="21" y1="34" x2="29" y2="34" stroke="#005BBB" stroke-width="0.5" />
  <line x1="21" y1="38" x2="29" y2="38" stroke="#005BBB" stroke-width="0.5" />
  
  <line x1="35" y1="26" x2="43" y2="26" stroke="#005BBB" stroke-width="0.5" />
  <line x1="35" y1="30" x2="43" y2="30" stroke="#005BBB" stroke-width="0.5" />
  <line x1="35" y1="34" x2="43" y2="34" stroke="#005BBB" stroke-width="0.5" />
  <line x1="35" y1="38" x2="43" y2="38" stroke="#005BBB" stroke-width="0.5" />
  
  <!-- Пісочний годинник на правій сторінці -->
  <path d="M36 26 L42 26 L41 32 L42 38 L36 38 L37 32 Z" fill="#005BBB" />
  <path d="M37 27 L41 27 L40 32 L41 37 L37 37 L38 32 Z" fill="#FFD500" />
  
  <!-- Пісок у годиннику -->
  <path d="M37 32 L41 32 L40 34 L38 34 Z" fill="#005BBB" />
  <path d="M38 34 L40 34 L41 37 L37 37 Z" fill="#005BBB" />
</svg> 