<?xml version="1.0" encoding="UTF-8"?>
<svg width="64" height="64" viewBox="0 0 64 64" fill="none" xmlns="http://www.w3.org/2000/svg">
  <!-- Фон -->
  <circle cx="32" cy="32" r="32" fill="#3f51b5" />
  <circle cx="32" cy="32" r="28" fill="#ffffff" />
  
  <!-- Циферблат годинника -->
  <circle cx="32" cy="32" r="24" fill="#f5f5f5" stroke="#3f51b5" stroke-width="2" />
  
  <!-- Позначки годин (спрощені) -->
  <line x1="32" y1="12" x2="32" y2="14" stroke="#3f51b5" stroke-width="2" stroke-linecap="round" />
  <line x1="42" y1="16" x2="40" y2="18" stroke="#3f51b5" stroke-width="2" stroke-linecap="round" />
  <line x1="48" y1="26" x2="46" y2="28" stroke="#3f51b5" stroke-width="2" stroke-linecap="round" />
  <line x1="52" y1="32" x2="50" y2="32" stroke="#3f51b5" stroke-width="2" stroke-linecap="round" />
  <line x1="48" y1="38" x2="46" y2="36" stroke="#3f51b5" stroke-width="2" stroke-linecap="round" />
  <line x1="42" y1="48" x2="40" y2="46" stroke="#3f51b5" stroke-width="2" stroke-linecap="round" />
  <line x1="32" y1="52" x2="32" y2="50" stroke="#3f51b5" stroke-width="2" stroke-linecap="round" />
  <line x1="22" y1="48" x2="24" y2="46" stroke="#3f51b5" stroke-width="2" stroke-linecap="round" />
  <line x1="16" y1="38" x2="18" y2="36" stroke="#3f51b5" stroke-width="2" stroke-linecap="round" />
  <line x1="12" y1="32" x2="14" y2="32" stroke="#3f51b5" stroke-width="2" stroke-linecap="round" />
  <line x1="16" y1="26" x2="18" y2="28" stroke="#3f51b5" stroke-width="2" stroke-linecap="round" />
  <line x1="22" y1="16" x2="24" y2="18" stroke="#3f51b5" stroke-width="2" stroke-linecap="round" />
  
  <!-- Стрілки годинника -->
  <line x1="32" y1="32" x2="32" y2="18" stroke="#3f51b5" stroke-width="3" stroke-linecap="round" />
  <line x1="32" y1="32" x2="42" y2="32" stroke="#ff4081" stroke-width="2.5" stroke-linecap="round" />
  
  <!-- Центр годинника -->
  <circle cx="32" cy="32" r="3" fill="#3f51b5" />
  
  <!-- Академічна шапка (спрощена) -->
  <path d="M32 16 L24 20 L32 24 L40 20 Z" fill="#3f51b5" />
</svg> 