<?xml version="1.0" encoding="UTF-8"?>
<svg width="64" height="64" viewBox="0 0 64 64" fill="none" xmlns="http://www.w3.org/2000/svg">
  <!-- Фон -->
  <circle cx="32" cy="32" r="32" fill="#005BBB" />
  <circle cx="32" cy="32" r="28" fill="#ffffff" />
  
  <!-- Києво-Могилянська академія (стилізована) -->
  <path d="M20 24 L32 18 L44 24 L44 42 L20 42 Z" fill="#005BBB" />
  <path d="M22 26 L32 20 L42 26 L42 40 L22 40 Z" fill="#ffffff" />
  
  <!-- Колони (спрощені) -->
  <rect x="24" y="26" width="2" height="14" fill="#005BBB" />
  <rect x="28" y="26" width="2" height="14" fill="#005BBB" />
  <rect x="32" y="26" width="2" height="14" fill="#005BBB" />
  <rect x="36" y="26" width="2" height="14" fill="#005BBB" />
  <rect x="40" y="26" width="2" height="14" fill="#005BBB" />
  
  <!-- Верхня частина будівлі -->
  <path d="M20 24 L22 22 L42 22 L44 24 Z" fill="#FFD500" />
  
  <!-- Купол -->
  <path d="M30 22 L30 18 L34 18 L34 22 Z" fill="#005BBB" />
  <path d="M30 18 A2 2 0 0 1 34 18" fill="#005BBB" />
  <circle cx="32" cy="16" r="1.5" fill="#FFD500" />
  
  <!-- Годинник на будівлі -->
  <circle cx="32" cy="30" r="4" fill="#ffffff" stroke="#005BBB" stroke-width="0.5" />
  <line x1="32" y1="30" x2="32" y2="28" stroke="#005BBB" stroke-width="0.5" stroke-linecap="round" />
  <line x1="32" y1="30" x2="33.5" y2="30" stroke="#005BBB" stroke-width="0.5" stroke-linecap="round" />
  <circle cx="32" cy="30" r="0.5" fill="#005BBB" />
  
  <!-- Сходи (спрощені) -->
  <rect x="26" y="40" width="12" height="1" fill="#005BBB" />
  <rect x="27" y="41" width="10" height="1" fill="#005BBB" />
  <rect x="28" y="42" width="8" height="1" fill="#005BBB" />
</svg> 