<?xml version="1.0" encoding="UTF-8"?>
<svg width="64" height="64" viewBox="0 0 64 64" fill="none" xmlns="http://www.w3.org/2000/svg">
  <!-- Фон -->
  <circle cx="32" cy="32" r="32" fill="#005BBB" />
  <circle cx="32" cy="32" r="28" fill="#ffffff" />
  
  <!-- Червоний корпус КНУ (стилізований) -->
  <rect x="17" y="24" width="30" height="20" fill="#D40000" />
  <rect x="18" y="25" width="28" height="18" fill="#ffffff" />
  
  <!-- Колони (спрощені) -->
  <rect x="20" y="25" width="2" height="18" fill="#D40000" />
  <rect x="24" y="25" width="2" height="18" fill="#D40000" />
  <rect x="28" y="25" width="2" height="18" fill="#D40000" />
  <rect x="32" y="25" width="2" height="18" fill="#D40000" />
  <rect x="36" y="25" width="2" height="18" fill="#D40000" />
  <rect x="40" y="25" width="2" height="18" fill="#D40000" />
  
  <!-- Верхня частина будівлі -->
  <path d="M16 24 L17 22 L47 22 L48 24 Z" fill="#FFD500" />
  
  <!-- Центральна вежа -->
  <rect x="30" y="19" width="4" height="5" fill="#D40000" />
  <path d="M30 19 L32 16 L34 19 Z" fill="#D40000" />
  <circle cx="32" cy="17" r="0.8" fill="#FFD500" />
  
  <!-- Годинник на будівлі -->
  <circle cx="32" cy="32" r="4" fill="#ffffff" stroke="#D40000" stroke-width="0.5" />
  <line x1="32" y1="32" x2="32" y2="29" stroke="#D40000" stroke-width="0.5" stroke-linecap="round" />
  <line x1="32" y1="32" x2="34" y2="32" stroke="#D40000" stroke-width="0.5" stroke-linecap="round" />
  <circle cx="32" cy="32" r="0.5" fill="#D40000" />
  
  <!-- Сходи (спрощені) -->
  <rect x="24" y="43" width="16" height="1" fill="#D40000" />
  <rect x="25" y="44" width="14" height="1" fill="#D40000" />
  <rect x="26" y="45" width="12" height="1" fill="#D40000" />
</svg> 