<?xml version="1.0" encoding="UTF-8"?>
<svg width="64" height="64" viewBox="0 0 64 64" fill="none" xmlns="http://www.w3.org/2000/svg">
  <!-- Фон -->
  <circle cx="32" cy="32" r="32" fill="#005BBB" />
  <circle cx="32" cy="32" r="28" fill="#ffffff" />
  
  <!-- Силует Тараса Шевченка (стилізований) -->
  <path d="M24 22 C24 22 23 24 23 27 C23 30 24 32 24 32 L24 40 L40 40 L40 32 C40 32 41 30 41 27 C41 24 40 22 40 22 Z" fill="#333333" />
  
  <!-- Обличчя -->
  <ellipse cx="32" cy="27" rx="6" ry="7" fill="#F5D7B5" />
  
  <!-- Вуса -->
  <path d="M28 30 C28 30 30 31 32 31 C34 31 36 30 36 30 C36 30 34 32 32 32 C30 32 28 30 28 30 Z" fill="#333333" />
  
  <!-- Брови -->
  <path d="M28 26 C28 26 30 25 31 25 C32 25 32 26 32 26" stroke="#333333" stroke-width="0.5" />
  <path d="M36 26 C36 26 34 25 33 25 C32 25 32 26 32 26" stroke="#333333" stroke-width="0.5" />
  
  <!-- Очі -->
  <ellipse cx="30" cy="27" rx="0.8" ry="0.5" fill="#333333" />
  <ellipse cx="34" cy="27" rx="0.8" ry="0.5" fill="#333333" />
  
  <!-- Волосся та шапка -->
  <path d="M24 22 C24 22 27 18 32 18 C37 18 40 22 40 22 C40 22 37 20 32 20 C27 20 24 22 24 22 Z" fill="#333333" />
  <path d="M24 22 C24 22 27 21 32 21 C37 21 40 22 40 22 Z" fill="#333333" />
  
  <!-- Годинник -->
  <circle cx="32" cy="46" r="5" fill="#ffffff" stroke="#005BBB" stroke-width="0.5" />
  <line x1="32" y1="46" x2="32" y2="43" stroke="#005BBB" stroke-width="0.5" stroke-linecap="round" />
  <line x1="32" y1="46" x2="34" y2="46" stroke="#005BBB" stroke-width="0.5" stroke-linecap="round" />
  <circle cx="32" cy="46" r="0.5" fill="#005BBB" />
  
  <!-- Книга -->
  <path d="M24 40 L24 42 L40 42 L40 40 Z" fill="#8B4513" />
  <path d="M24 40 L24 42 L32 41 L40 42 L40 40 Z" fill="#8B4513" />
</svg> 