<?xml version="1.0" encoding="UTF-8"?>
<svg width="64" height="64" viewBox="0 0 64 64" fill="none" xmlns="http://www.w3.org/2000/svg">
  <!-- Фон -->
  <circle cx="32" cy="32" r="32" fill="#005BBB" />
  <circle cx="32" cy="32" r="28" fill="#ffffff" />
  
  <!-- Університетська будівля (спрощена) -->
  <rect x="17" y="24" width="30" height="20" fill="#005BBB" />
  <rect x="18" y="25" width="28" height="18" fill="#ffffff" />
  
  <!-- Колони (спрощені) -->
  <rect x="21" y="25" width="3" height="18" fill="#005BBB" />
  <rect x="27" y="25" width="3" height="18" fill="#005BBB" />
  <rect x="33" y="25" width="3" height="18" fill="#005BBB" />
  <rect x="39" y="25" width="3" height="18" fill="#005BBB" />
  
  <!-- Дах -->
  <path d="M16 24 L32 16 L48 24 Z" fill="#FFD500" />
  
  <!-- Годинник на будівлі -->
  <circle cx="32" cy="20" r="4" fill="#ffffff" stroke="#005BBB" stroke-width="1" />
  <line x1="32" y1="20" x2="32" y2="18" stroke="#005BBB" stroke-width="0.8" stroke-linecap="round" />
  <line x1="32" y1="20" x2="34" y2="20" stroke="#005BBB" stroke-width="0.8" stroke-linecap="round" />
  
  <!-- Сходи (спрощені) -->
  <rect x="23" y="44" width="18" height="2" fill="#005BBB" />
  <rect x="24" y="46" width="16" height="2" fill="#005BBB" />
  
  <!-- Український прапор (спрощений) -->
  <rect x="31" y="12" width="2" height="4" fill="#7a7a7a" />
  <rect x="33" y="10" width="4" height="2" fill="#005BBB" />
  <rect x="33" y="12" width="4" height="2" fill="#FFD500" />
</svg> 