<?xml version="1.0" encoding="UTF-8"?>
<svg width="64" height="64" viewBox="0 0 64 64" fill="none" xmlns="http://www.w3.org/2000/svg">
  <!-- Фон -->
  <circle cx="32" cy="32" r="32" fill="#005BBB" />
  <circle cx="32" cy="32" r="28" fill="#FFD500" />
  
  <!-- Книжки (стилізовані) -->
  <rect x="18" y="24" width="6" height="24" rx="1" fill="#005BBB" />
  <rect x="19" y="25" width="4" height="22" rx="0.5" fill="#FFD500" />
  
  <rect x="24" y="22" width="7" height="26" rx="1" fill="#005BBB" />
  <rect x="25" y="23" width="5" height="24" rx="0.5" fill="#FFD500" />
  
  <rect x="31" y="20" width="8" height="28" rx="1" fill="#005BBB" />
  <rect x="32" y="21" width="6" height="26" rx="0.5" fill="#FFD500" />
  
  <rect x="39" y="22" width="7" height="26" rx="1" fill="#005BBB" />
  <rect x="40" y="23" width="5" height="24" rx="0.5" fill="#FFD500" />
  
  <!-- Пісочний годинник -->
  <path d="M31 20 L39 20 L37 28 L39 36 L31 36 L33 28 Z" fill="#005BBB" />
  <path d="M32 21 L38 21 L37 28 L38 35 L32 35 L33 28 Z" fill="#FFD500" />
  
  <!-- Пісок у годиннику -->
  <path d="M32 28 L38 28 L37 30 L33 30 Z" fill="#005BBB" />
  <path d="M33 30 L37 30 L38 35 L32 35 Z" fill="#005BBB" />
</svg>