<?xml version="1.0" encoding="UTF-8"?>
<svg width="512" height="512" viewBox="0 0 512 512" fill="none" xmlns="http://www.w3.org/2000/svg">
  <!-- Фон -->
  <circle cx="256" cy="256" r="240" fill="#005BBB" />
  <circle cx="256" cy="256" r="220" fill="#ffffff" />
  
  <!-- Червоний корпус КНУ (стилізований) -->
  <rect x="136" y="180" width="240" height="160" fill="#D40000" />
  <rect x="146" y="190" width="220" height="140" fill="#ffffff" />
  
  <!-- Колони -->
  <rect x="166" y="190" width="15" height="140" fill="#D40000" />
  <rect x="196" y="190" width="15" height="140" fill="#D40000" />
  <rect x="226" y="190" width="15" height="140" fill="#D40000" />
  <rect x="256" y="190" width="15" height="140" fill="#D40000" />
  <rect x="286" y="190" width="15" height="140" fill="#D40000" />
  <rect x="316" y="190" width="15" height="140" fill="#D40000" />
  
  <!-- Верхня частина будівлі -->
  <path d="M126 180 L136 160 L376 160 L386 180 Z" fill="#FFD500" />
  
  <!-- Центральна вежа -->
  <rect x="236" y="140" width="40" height="40" fill="#D40000" />
  <path d="M236 140 L256 120 L276 140 Z" fill="#D40000" />
  <circle cx="256" cy="130" r="5" fill="#FFD500" />
  
  <!-- Годинник на будівлі -->
  <circle cx="256" cy="220" r="30" fill="#ffffff" stroke="#D40000" stroke-width="3" />
  <line x1="256" y1="220" x2="256" y2="200" stroke="#D40000" stroke-width="2" stroke-linecap="round" />
  <line x1="256" y1="220" x2="270" y2="220" stroke="#D40000" stroke-width="2" stroke-linecap="round" />
  <circle cx="256" cy="220" r="3" fill="#D40000" />
  
  <!-- Сходи -->
  <rect x="186" y="330" width="140" height="10" fill="#D40000" />
  <rect x="196" y="340" width="120" height="10" fill="#D40000" />
  <rect x="206" y="350" width="100" height="10" fill="#D40000" />
  
  <!-- Напис "КНУ імені Тараса Шевченка" -->
  <text x="256" y="280" font-family="Arial, sans-serif" font-size="12" font-weight="bold" text-anchor="middle" fill="#D40000">КНУ ІМЕНІ</text>
  <text x="256" y="295" font-family="Arial, sans-serif" font-size="12" font-weight="bold" text-anchor="middle" fill="#D40000">ТАРАСА ШЕВЧЕНКА</text>
  
  <!-- Текст AcaTime -->
  <text x="256" y="380" font-family="Arial, sans-serif" font-size="40" font-weight="bold" text-anchor="middle" fill="#005BBB">AcaTime</text>
  
  <!-- Український прапор -->
  <rect x="251" y="100" width="10" height="20" fill="#7a7a7a" />
  <rect x="261" y="90" width="30" height="15" fill="#005BBB" />
  <rect x="261" y="105" width="30" height="15" fill="#FFD500" />
</svg> 